<svg viewBox="220.316 88.158 186.316 260.5333" width="65" height="65" xmlns="http://www.w3.org/2000/svg">
    <ellipse style="stroke: rgb(0, 0, 0); fill: rgb(254, 239, 243); stroke-width: 0px;" cx="279.474" cy="186.316" rx="93.158" ry="93.158"/>
    <path style="stroke: rgb(0, 0, 0); stroke-width: 0px; fill: rgb(235, 126, 155);" transform="matrix(0, -0.355984, 0.340564, 0, 113.589841, 649.963069)" d="M 1333.862 391.302 A 124 124 0 1 1 1333.862 569.698 A 91.457 91.457 0 0 0 1333.862 391.302 Z"/>
    <path d="M 246.157 190.063 Q 278.353 110.882 309.287 190.063 L 309.287 190.063 Q 340.221 269.244 277.091 269.244 L 277.091 269.244 Q 213.96 269.244 246.157 190.063 Z" style="stroke: rgb(0, 0, 0); stroke-width: 0px; fill: rgb(235, 126, 155);"/>
    <ellipse style="stroke: rgb(0, 0, 0); stroke-width: 0px; fill: rgb(34, 103, 71);" cx="376.263" cy="178.715" rx="31.672" ry="47.509" transform="matrix(0.8660250306129456, 0.5, -0.5, 0.8660250306129456, 63.45458602905273, -143.3695526123047)"/>
    <ellipse style="stroke-width: 0px; stroke: rgb(255, 255, 255); fill: rgb(255, 255, 255);" cx="376.263" cy="167.966" rx="21.115" ry="21.115" transform="matrix(0.8660250306129456, 0.5, -0.5, 0.8660250306129456, 65.9981918334961, -147.77523803710938)"/>
    <path d="M 198.775 340.691 L 198.775 338.623 Q 200.326 338.529 201.007 337.965 Q 201.689 337.401 201.877 336.273 Q 202.065 335.145 202.065 333.406 L 202.065 313.854 Q 202.065 312.82 202.112 311.857 Q 202.159 310.893 202.206 310.188 Q 201.407 310.235 200.467 310.282 Q 199.527 310.329 198.775 310.376 L 198.775 307.791 L 210.337 307.791 L 210.337 309.859 Q 208.833 309.906 208.128 310.494 Q 207.423 311.081 207.235 312.186 Q 207.047 313.29 207.047 315.076 L 207.047 322.596 L 210.525 322.596 L 215.648 314.371 Q 216.353 313.29 217.246 312.068 Q 218.139 310.846 218.938 310.141 Q 218.233 310.188 217.457 310.212 Q 216.682 310.235 216.071 310.282 L 216.071 307.791 L 226.646 307.791 L 226.646 309.859 Q 224.954 309.953 223.52 310.423 Q 222.087 310.893 220.724 312.068 Q 219.361 313.243 217.857 315.687 L 213.298 322.972 Q 214.52 323.724 215.319 324.664 Q 216.118 325.604 216.87 326.591 L 221.993 333.5 Q 223.497 335.521 224.601 336.649 Q 225.706 337.777 226.693 338.2 Q 227.68 338.623 228.667 338.623 L 228.667 340.691 L 222.416 340.691 Q 221.993 340.691 221.194 339.986 Q 220.395 339.281 219.478 338.2 Q 218.562 337.119 217.716 336.038 L 212.405 328.706 Q 211.606 327.625 210.783 326.591 Q 209.961 325.557 209.162 325.087 L 207.047 325.087 L 207.047 334.393 Q 207.047 335.662 207.023 336.673 Q 207 337.683 206.906 338.294 Q 207.705 338.2 208.668 338.177 Q 209.632 338.153 210.337 338.106 L 210.337 340.691 Z M 244.639 340.691 Q 244.545 339.939 244.498 339.375 Q 244.451 338.811 244.357 338.2 Q 242.759 339.798 240.926 340.621 Q 239.093 341.443 237.119 341.443 Q 233.735 341.443 232.02 339.775 Q 230.304 338.106 230.304 335.615 Q 230.304 333.453 231.573 331.855 Q 232.842 330.257 234.91 329.247 Q 236.978 328.236 239.422 327.743 Q 241.866 327.249 244.216 327.249 L 244.216 324.476 Q 244.216 322.972 243.934 321.68 Q 243.652 320.387 242.783 319.565 Q 241.913 318.742 240.08 318.742 Q 238.858 318.695 237.636 319.189 Q 236.414 319.682 235.756 320.81 Q 236.132 321.186 236.25 321.68 Q 236.367 322.173 236.367 322.596 Q 236.367 323.254 235.803 324.077 Q 235.239 324.899 233.876 324.852 Q 232.748 324.852 232.161 324.077 Q 231.573 323.301 231.573 322.267 Q 231.573 320.575 232.819 319.259 Q 234.064 317.943 236.226 317.191 Q 238.388 316.439 241.067 316.439 Q 245.109 316.439 247.107 318.554 Q 249.104 320.669 249.104 325.228 Q 249.104 326.92 249.104 328.471 Q 249.104 330.022 249.081 331.573 Q 249.057 333.124 249.057 334.863 Q 249.057 335.568 249.01 336.461 Q 248.963 337.354 248.869 338.341 Q 249.668 338.294 250.514 338.247 Q 251.36 338.2 252.112 338.2 L 252.112 340.691 Z M 244.216 329.411 Q 242.712 329.505 241.138 329.834 Q 239.563 330.163 238.294 330.821 Q 237.025 331.479 236.25 332.513 Q 235.474 333.547 235.474 335.004 Q 235.568 336.602 236.532 337.354 Q 237.495 338.106 238.811 338.106 Q 240.456 338.106 241.725 337.472 Q 242.994 336.837 244.216 335.709 Q 244.169 335.192 244.169 334.652 Q 244.169 334.111 244.169 333.5 Q 244.169 333.077 244.193 331.926 Q 244.216 330.774 244.216 329.411 Z M 254.586 338.717 Q 255.996 338.717 256.56 338.059 Q 257.124 337.401 257.241 336.226 Q 257.359 335.051 257.359 333.5 L 257.359 312.256 Q 257.359 311.457 257.382 310.635 Q 257.406 309.812 257.5 308.872 Q 256.701 308.919 255.808 308.943 Q 254.915 308.966 254.21 309.013 L 254.21 306.522 Q 256.325 306.522 257.57 306.311 Q 258.816 306.099 259.497 305.817 Q 260.179 305.535 260.508 305.206 L 262.294 305.206 L 262.294 334.863 Q 262.294 335.709 262.247 336.579 Q 262.2 337.448 262.106 338.341 Q 262.858 338.294 263.633 338.271 Q 264.409 338.247 265.067 338.2 L 265.067 340.691 L 254.586 340.691 Z M 268.556 338.717 Q 269.966 338.717 270.53 338.059 Q 271.094 337.401 271.212 336.226 Q 271.329 335.051 271.329 333.5 L 271.329 323.771 Q 271.329 322.972 271.376 322.15 Q 271.423 321.327 271.517 320.387 Q 270.718 320.434 269.825 320.458 Q 268.932 320.481 268.18 320.528 L 268.18 318.037 Q 270.295 318.037 271.541 317.826 Q 272.786 317.614 273.468 317.332 Q 274.149 317.05 274.478 316.721 L 276.264 316.721 L 276.264 334.863 Q 276.264 335.709 276.217 336.579 Q 276.17 337.448 276.076 338.341 Q 276.828 338.294 277.604 338.271 Q 278.379 338.247 279.037 338.2 L 279.037 340.691 L 268.556 340.691 Z M 273.538 312.397 Q 272.316 312.397 271.47 311.481 Q 270.624 310.564 270.624 309.248 Q 270.624 307.932 271.517 307.016 Q 272.41 306.099 273.538 306.099 Q 274.76 306.099 275.583 307.016 Q 276.405 307.932 276.405 309.248 Q 276.405 310.564 275.583 311.481 Q 274.76 312.397 273.538 312.397 Z M 282.463 340.691 L 282.463 338.717 Q 283.873 338.717 284.437 338.059 Q 285.001 337.401 285.118 336.226 Q 285.236 335.051 285.236 333.5 L 285.283 323.724 Q 285.283 322.972 285.306 322.103 Q 285.33 321.233 285.471 320.387 Q 284.625 320.434 283.755 320.458 Q 282.886 320.481 282.134 320.528 L 282.134 318.037 Q 284.249 318.037 285.447 317.826 Q 286.646 317.614 287.28 317.332 Q 287.915 317.05 288.244 316.721 L 289.936 316.721 Q 289.983 317.144 290.006 317.52 Q 290.03 317.896 290.053 318.319 Q 290.077 318.742 290.124 319.4 Q 291.158 318.554 292.38 317.896 Q 293.602 317.238 294.941 316.839 Q 296.281 316.439 297.503 316.439 Q 301.686 316.439 303.542 318.977 Q 305.399 321.515 305.399 326.92 L 305.399 334.863 Q 305.399 335.709 305.352 336.579 Q 305.305 337.448 305.211 338.341 Q 305.963 338.294 306.738 338.271 Q 307.514 338.247 308.172 338.2 L 308.172 340.691 L 297.691 340.691 L 297.691 338.717 Q 299.101 338.717 299.665 338.059 Q 300.229 337.401 300.346 336.226 Q 300.464 335.051 300.464 333.5 L 300.464 326.92 Q 300.417 323.207 299.265 321.327 Q 298.114 319.447 295.576 319.494 Q 294.072 319.494 292.615 320.246 Q 291.158 320.998 290.171 322.079 Q 290.171 322.549 290.171 323.09 Q 290.171 323.63 290.171 324.194 L 290.171 334.863 Q 290.171 335.709 290.124 336.579 Q 290.077 337.448 289.983 338.341 Q 290.735 338.294 291.51 338.271 Q 292.286 338.247 292.944 338.2 L 292.944 340.691 Z M 322.352 353.428 Q 318.216 353.428 315.701 352.512 Q 313.187 351.595 312.082 350.162 Q 310.978 348.728 310.978 347.13 Q 310.978 345.861 311.565 344.78 Q 312.153 343.699 313.14 342.877 Q 314.127 342.054 315.349 341.584 Q 313.704 341.067 312.858 340.104 Q 312.012 339.14 312.012 337.73 Q 312.012 336.226 313.21 334.769 Q 314.409 333.312 316.665 332.795 Q 314.55 331.855 313.281 330.069 Q 312.012 328.283 311.965 325.839 Q 311.918 323.019 313.398 320.904 Q 314.879 318.789 317.205 317.614 Q 319.532 316.439 322.07 316.439 Q 323.527 316.439 325.078 316.839 Q 326.629 317.238 327.898 318.084 Q 328.415 316.721 329.261 315.593 Q 330.107 314.465 331.258 313.807 Q 332.41 313.149 333.679 313.149 Q 335.042 313.149 335.747 313.854 Q 336.452 314.559 336.452 315.734 Q 336.452 316.11 336.24 316.651 Q 336.029 317.191 335.512 317.567 Q 334.995 317.943 334.102 317.943 Q 333.35 317.943 332.762 317.45 Q 332.175 316.956 332.034 316.251 Q 331.047 316.439 330.412 317.403 Q 329.778 318.366 329.59 319.353 Q 330.812 320.434 331.493 321.915 Q 332.175 323.395 332.175 325.087 Q 332.175 327.766 330.741 329.834 Q 329.308 331.902 327.005 333.077 Q 324.702 334.252 322.023 334.252 Q 321.224 334.252 320.519 334.135 Q 319.814 334.017 318.968 334.017 Q 317.464 334.017 316.5 334.722 Q 315.537 335.427 315.772 336.414 Q 316.007 337.448 317.746 337.777 Q 319.485 338.106 322.775 338.247 Q 326.394 338.388 329.002 339.117 Q 331.611 339.845 333.044 341.349 Q 334.478 342.853 334.478 345.438 Q 334.478 347.365 333.42 348.869 Q 332.363 350.373 330.6 351.384 Q 328.838 352.394 326.676 352.911 Q 324.514 353.428 322.352 353.428 Z M 322.775 351.125 Q 326.582 351.125 328.673 349.715 Q 330.765 348.305 330.765 346.519 Q 330.765 345.015 329.731 344.193 Q 328.697 343.37 326.84 343.018 Q 324.984 342.665 322.493 342.618 Q 321.271 342.524 320.002 342.477 Q 318.733 342.43 317.652 342.242 Q 316.571 342.994 315.983 344.075 Q 315.396 345.156 315.349 346.331 Q 315.349 348.493 317.37 349.809 Q 319.391 351.125 322.775 351.125 Z M 322.164 332.043 Q 323.762 332.043 324.819 331.221 Q 325.877 330.398 326.417 329.012 Q 326.958 327.625 326.958 325.98 Q 326.958 324.053 326.394 322.361 Q 325.83 320.669 324.749 319.635 Q 323.668 318.601 321.976 318.601 Q 319.673 318.601 318.404 320.434 Q 317.135 322.267 317.135 324.852 Q 317.135 326.92 317.722 328.542 Q 318.31 330.163 319.438 331.103 Q 320.566 332.043 322.164 332.043 Z M 351.251 340.691 Q 351.157 339.939 351.11 339.375 Q 351.063 338.811 350.969 338.2 Q 349.371 339.798 347.538 340.621 Q 345.705 341.443 343.731 341.443 Q 340.347 341.443 338.631 339.775 Q 336.916 338.106 336.916 335.615 Q 336.916 333.453 338.185 331.855 Q 339.454 330.257 341.522 329.247 Q 343.59 328.236 346.034 327.743 Q 348.478 327.249 350.828 327.249 L 350.828 324.476 Q 350.828 322.972 350.546 321.68 Q 350.264 320.387 349.394 319.565 Q 348.525 318.742 346.692 318.742 Q 345.47 318.695 344.248 319.189 Q 343.026 319.682 342.368 320.81 Q 342.744 321.186 342.861 321.68 Q 342.979 322.173 342.979 322.596 Q 342.979 323.254 342.415 324.077 Q 341.851 324.899 340.488 324.852 Q 339.36 324.852 338.772 324.077 Q 338.185 323.301 338.185 322.267 Q 338.185 320.575 339.43 319.259 Q 340.676 317.943 342.838 317.191 Q 345 316.439 347.679 316.439 Q 351.721 316.439 353.718 318.554 Q 355.716 320.669 355.716 325.228 Q 355.716 326.92 355.716 328.471 Q 355.716 330.022 355.692 331.573 Q 355.669 333.124 355.669 334.863 Q 355.669 335.568 355.622 336.461 Q 355.575 337.354 355.481 338.341 Q 356.28 338.294 357.126 338.247 Q 357.972 338.2 358.724 338.2 L 358.724 340.691 Z M 350.828 329.411 Q 349.324 329.505 347.749 329.834 Q 346.175 330.163 344.906 330.821 Q 343.637 331.479 342.861 332.513 Q 342.086 333.547 342.086 335.004 Q 342.18 336.602 343.143 337.354 Q 344.107 338.106 345.423 338.106 Q 347.068 338.106 348.337 337.472 Q 349.606 336.837 350.828 335.709 Q 350.781 335.192 350.781 334.652 Q 350.781 334.111 350.781 333.5 Q 350.781 333.077 350.804 331.926 Q 350.828 330.774 350.828 329.411 Z" style="fill: rgb(34, 103, 71);"/>
    <ellipse style="stroke: rgb(0, 0, 0); stroke-width: 0px; fill: rgb(255, 255, 255);" cx="277.232" cy="142.554" rx="31.672" ry="31.672"/>
    <ellipse style="stroke: rgb(0, 0, 0); stroke-width: 0px; fill: rgb(235, 126, 155);" cx="293.806" cy="107.49" rx="10.557" ry="21.115" transform="matrix(0.5, 0.866025, -0.866025, 0.5, 210.410336, -188.164057)"/>
    <ellipse style="stroke: rgb(0, 0, 0); stroke-width: 0px; fill: rgb(235, 126, 155);" cx="293.806" cy="107.49" rx="10.557" ry="21.115" transform="matrix(-0.5, 0.866025, -0.866025, -0.5, 530.230839, -80.673879)"/>
</svg>