<svg viewBox="200 130 190 190" xmlns="http://www.w3.org/2000/svg">
    <path d="M 428.333 159.129 Q 436.883 159.129 444.008 163.929 Q 451.133 168.729 455.408 176.904 Q 459.683 185.079 459.683 195.279 Q 459.683 203.529 456.758 210.729 Q 453.833 217.929 449.333 224.004 Q 444.833 230.079 439.808 235.104 Q 434.783 240.129 430.583 244.179 Q 423.833 250.629 417.083 258.204 Q 410.333 265.779 405.008 272.679 Q 399.683 279.579 396.833 284.079 Q 396.533 284.679 396.233 284.079 Q 393.533 279.579 388.133 272.679 Q 382.733 265.779 376.058 258.204 Q 369.383 250.629 362.483 244.179 Q 358.283 240.129 353.258 235.104 Q 348.233 230.079 343.733 224.004 Q 339.233 217.929 336.308 210.729 Q 333.383 203.529 333.383 195.279 Q 333.383 185.079 337.658 176.904 Q 341.933 168.729 349.058 163.929 Q 356.183 159.129 364.733 159.129 Q 375.383 159.129 383.933 164.904 Q 392.483 170.679 395.783 183.129 Q 396.083 184.179 396.533 184.179 Q 396.983 184.179 397.283 183.129 Q 400.583 170.679 409.208 164.904 Q 417.833 159.129 428.333 159.129 Z" transform="matrix(0.771079, 0.63674, -0.63674, 0.771079, -103.392433, 1.212642)" style="fill: rgb(255, 234, 209); transform-origin: 360.04px 171.889px;"/>
    <path d="M 278.833 255.323 L 277.769 256.789 Q 273.374 262.654 269.45 267.752 Q 265.526 272.849 261.933 276.619 Q 258.339 280.39 255.05 282.519 Q 251.761 284.649 248.619 284.649 Q 245.477 284.649 242.892 282.973 Q 240.308 281.297 238.089 278.295 Q 235.87 275.293 233.903 271.278 Q 231.937 267.263 229.978 262.515 L 227.43 262.934 Q 225.759 269.078 224.252 274.001 Q 222.745 278.923 221.543 282.065 Q 220.985 283.462 219.895 284.055 Q 218.804 284.649 217.198 284.649 Q 215.313 284.649 214.178 284.16 Q 213.043 283.671 212.492 282.938 Q 211.942 282.205 211.846 281.332 Q 211.749 280.46 211.958 279.622 Q 213.072 275.153 216.192 268.52 L 225.193 232.42 Q 228.535 219.014 232.378 209.204 Q 236.22 199.394 240.205 192.935 Q 244.189 186.476 248.141 183.369 Q 252.092 180.262 255.653 180.262 Q 259.494 180.262 260.517 182.741 Q 261.539 185.219 260.46 189.548 Q 259.52 193.319 256.932 199.219 Q 254.343 205.119 250.595 212.171 Q 246.847 219.224 242.287 226.869 Q 237.728 234.515 232.845 241.777 L 232.462 243.313 Q 235.2 240.171 238.532 237.308 Q 241.865 234.445 245.415 232.246 Q 248.966 230.046 252.465 228.755 Q 255.964 227.463 259.037 227.463 Q 261.76 227.463 263.838 228.231 Q 265.915 228.999 267.226 230.465 Q 268.536 231.932 268.895 234.131 Q 269.254 236.331 268.541 239.193 Q 267.809 242.126 265.787 245.059 Q 263.764 247.991 260.327 250.714 Q 256.89 253.438 251.96 255.846 Q 247.03 258.255 240.433 260.071 Q 240.695 260.699 241.307 262.166 Q 241.919 263.632 242.819 265.482 Q 243.72 267.333 244.829 269.323 Q 245.939 271.313 247.241 272.953 Q 248.542 274.594 249.948 275.677 Q 251.354 276.759 252.751 276.759 Q 254.636 276.759 256.983 275.188 Q 259.33 273.617 262.182 270.719 Q 265.034 267.821 268.356 263.737 Q 271.679 259.652 275.446 254.625 L 276.51 253.158 Z M 230.965 249.318 Q 230.564 250.924 230.225 252.146 Q 229.885 253.368 229.598 254.52 Q 229.311 255.672 228.98 256.859 Q 228.649 258.046 228.283 259.512 Q 235.666 258.465 241.024 256.719 Q 246.382 254.974 250.029 252.669 Q 253.676 250.365 255.76 247.607 Q 257.844 244.849 258.61 241.777 Q 259.01 240.171 258.861 238.67 Q 258.712 237.169 258.021 236.016 Q 257.331 234.864 256.074 234.166 Q 254.816 233.468 253.071 233.468 Q 250.627 233.468 247.826 234.76 Q 245.025 236.051 242.077 238.216 Q 239.128 240.38 236.276 243.278 Q 233.424 246.176 230.965 249.318 Z M 253.439 183.823 Q 251.973 183.823 250.177 186.686 Q 248.38 189.548 246.107 195.588 Q 243.833 201.628 241.02 210.95 Q 238.207 220.271 234.707 233.189 Q 239.572 225.438 243.085 218.63 Q 246.597 211.822 248.977 206.341 Q 251.356 200.86 252.723 196.775 Q 254.091 192.69 254.7 190.247 Q 255.623 186.546 255.299 185.184 Q 254.975 183.823 253.439 183.823 Z" style="fill: rgb(245, 170, 166);"/>
    <!-- <path d="M 224.274 317.044 L 219.956 317.044 L 211.086 304.632 L 208.376 306.945 L 208.376 317.044 L 204.672 317.044 L 204.672 290.631 L 208.376 290.631 L 208.376 303.53 Q 209.297 302.446 210.245 301.38 Q 211.194 300.315 212.133 299.231 L 219.703 290.631 L 223.949 290.631 L 213.759 302.139 Z" style="fill: rgb(132, 119, 98); text-transform: capitalize;"/>
    <path d="M 234.971 296.792 Q 238.656 296.792 240.481 298.427 Q 242.306 300.062 242.306 303.585 L 242.306 317.044 L 239.704 317.044 L 238.999 314.153 L 238.855 314.153 Q 238.024 315.237 237.12 315.96 Q 236.217 316.683 235.034 317.044 Q 233.85 317.405 232.152 317.405 Q 230.346 317.405 228.936 316.755 Q 227.527 316.105 226.723 314.795 Q 225.919 313.485 225.919 311.461 Q 225.919 308.426 228.25 306.855 Q 230.58 305.283 235.314 305.138 L 238.746 304.994 L 238.746 303.874 Q 238.746 301.543 237.708 300.586 Q 236.669 299.628 234.808 299.628 Q 233.272 299.628 231.863 300.071 Q 230.454 300.513 229.153 301.128 L 227.997 298.49 Q 229.406 297.767 231.204 297.279 Q 233.001 296.792 234.971 296.792 Z M 238.71 307.378 L 235.928 307.505 Q 232.477 307.631 231.077 308.652 Q 229.677 309.673 229.677 311.498 Q 229.677 313.087 230.635 313.828 Q 231.592 314.569 233.164 314.569 Q 235.585 314.569 237.148 313.205 Q 238.71 311.841 238.71 309.167 Z" style="fill: rgb(132, 119, 98); text-transform: capitalize;"/>
    <path d="M 252.013 317.044 L 248.363 317.044 L 248.363 288.933 L 252.013 288.933 Z" style="fill: rgb(132, 119, 98); text-transform: capitalize;"/>
    <path d="M 261.808 297.135 L 261.808 317.044 L 258.176 317.044 L 258.176 297.135 Z M 260.019 289.601 Q 260.886 289.601 261.51 290.107 Q 262.133 290.613 262.133 291.751 Q 262.133 292.889 261.51 293.404 Q 260.886 293.919 260.019 293.919 Q 259.134 293.919 258.529 293.404 Q 257.923 292.889 257.923 291.751 Q 257.923 290.613 258.529 290.107 Q 259.134 289.601 260.019 289.601 Z" style="fill: rgb(132, 119, 98); text-transform: capitalize;"/>
    <path d="M 277.905 296.773 Q 281.356 296.773 283.208 298.508 Q 285.06 300.242 285.06 304.072 L 285.06 317.044 L 281.464 317.044 L 281.464 304.56 Q 281.464 302.175 280.417 300.974 Q 279.369 299.773 277.201 299.773 Q 274.111 299.773 272.874 301.597 Q 271.636 303.422 271.636 306.891 L 271.636 317.044 L 268.005 317.044 L 268.005 297.135 L 270.878 297.135 L 271.401 299.935 L 271.6 299.935 Q 272.233 298.887 273.208 298.183 Q 274.184 297.478 275.385 297.126 Q 276.587 296.773 277.905 296.773 Z" style="fill: rgb(132, 119, 98); text-transform: capitalize;"/>
    <path d="M 296.752 325.933 Q 292.76 325.933 290.619 324.469 Q 288.478 323.006 288.478 320.386 Q 288.478 318.525 289.652 317.234 Q 290.827 315.942 292.94 315.49 Q 292.145 315.129 291.576 314.379 Q 291.007 313.629 291.007 312.69 Q 291.007 311.588 291.63 310.784 Q 292.254 309.98 293.5 309.221 Q 291.929 308.571 290.971 307.062 Q 290.014 305.554 290.014 303.53 Q 290.014 301.38 290.926 299.863 Q 291.838 298.345 293.555 297.55 Q 295.271 296.755 297.728 296.755 Q 298.27 296.755 298.848 296.801 Q 299.426 296.846 299.95 296.936 Q 300.474 297.026 300.799 297.117 L 307.664 297.117 L 307.664 299.267 L 304.123 299.809 Q 304.647 300.495 304.973 301.435 Q 305.298 302.374 305.298 303.494 Q 305.298 306.529 303.229 308.291 Q 301.161 310.052 297.511 310.052 Q 296.662 310.034 295.795 309.908 Q 295.018 310.359 294.62 310.892 Q 294.223 311.425 294.223 312.112 Q 294.223 312.636 294.575 312.961 Q 294.928 313.286 295.596 313.44 Q 296.265 313.593 297.222 313.593 L 300.691 313.593 Q 303.943 313.593 305.677 314.966 Q 307.411 316.339 307.411 318.977 Q 307.411 322.319 304.665 324.126 Q 301.919 325.933 296.752 325.933 Z M 296.879 323.277 Q 299.209 323.277 300.772 322.807 Q 302.335 322.337 303.13 321.47 Q 303.925 320.603 303.925 319.411 Q 303.925 318.327 303.41 317.758 Q 302.895 317.189 301.883 316.99 Q 300.871 316.791 299.39 316.791 L 296.102 316.791 Q 294.837 316.791 293.898 317.189 Q 292.958 317.586 292.434 318.336 Q 291.911 319.086 291.911 320.188 Q 291.911 321.687 293.202 322.482 Q 294.494 323.277 296.879 323.277 Z M 297.674 307.577 Q 299.679 307.577 300.673 306.52 Q 301.666 305.463 301.666 303.494 Q 301.666 301.38 300.655 300.315 Q 299.643 299.249 297.656 299.249 Q 295.723 299.249 294.702 300.342 Q 293.681 301.435 293.681 303.53 Q 293.681 305.463 294.711 306.52 Q 295.741 307.577 297.674 307.577 Z" style="fill: rgb(132, 119, 98); text-transform: capitalize;"/>
    <path d="M 319.022 296.792 Q 322.707 296.792 324.532 298.427 Q 326.357 300.062 326.357 303.585 L 326.357 317.044 L 323.755 317.044 L 323.051 314.153 L 322.906 314.153 Q 322.075 315.237 321.172 315.96 Q 320.269 316.683 319.085 317.044 Q 317.902 317.405 316.204 317.405 Q 314.397 317.405 312.988 316.755 Q 311.579 316.105 310.775 314.795 Q 309.971 313.485 309.971 311.461 Q 309.971 308.426 312.301 306.855 Q 314.632 305.283 319.365 305.138 L 322.798 304.994 L 322.798 303.874 Q 322.798 301.543 321.759 300.586 Q 320.72 299.628 318.859 299.628 Q 317.324 299.628 315.915 300.071 Q 314.505 300.513 313.205 301.128 L 312.048 298.49 Q 313.457 297.767 315.255 297.279 Q 317.053 296.792 319.022 296.792 Z M 322.762 307.378 L 319.979 307.505 Q 316.529 307.631 315.129 308.652 Q 313.728 309.673 313.728 311.498 Q 313.728 313.087 314.686 313.828 Q 315.644 314.569 317.215 314.569 Q 319.636 314.569 321.199 313.205 Q 322.762 311.841 322.762 309.167 Z" style="fill: rgb(132, 119, 98); text-transform: capitalize;"/> -->
</svg>